<svg viewBox="0 0 700 420" xmlns="http://www.w3.org/2000/svg" role="img" style="">
<title style="fill:rgb(0, 0, 0);stroke:none;color:rgb(0, 0, 0);stroke-width:1px;stroke-linecap:butt;stroke-linejoin:miter;opacity:1;font-family:&quot;Anthropic Sans&quot;, -apple-system, BlinkMacSystemFont, &quot;Segoe UI&quot;, sans-serif;font-size:16px;font-weight:400;text-anchor:start;dominant-baseline:auto">Wahrgenommener Qualitätsindex Q_perc im Vergleich</title>
<desc style="fill:rgb(0, 0, 0);stroke:none;color:rgb(0, 0, 0);stroke-width:1px;stroke-linecap:butt;stroke-linejoin:miter;opacity:1;font-family:&quot;Anthropic Sans&quot;, -apple-system, BlinkMacSystemFont, &quot;Segoe UI&quot;, sans-serif;font-size:16px;font-weight:400;text-anchor:start;dominant-baseline:auto">Vergleich von 114/900, 130/640 und 200/1000 sphärischen Spiegeln von 30× bis 250× Vergrößerung</desc>

<defs>
  <clipPath id="plotarea">
    <rect x="52" y="24" width="584" height="288"/>
  </clipPath>
<mask id="imagine-text-gaps-a5j0b1" maskUnits="userSpaceOnUse"><rect x="0" y="0" width="700" height="420" fill="white"/><rect x="28.666667938232422" y="14" width="21.333333015441895" height="18" fill="black" rx="2"/><rect x="26.5" y="43" width="23.5" height="18" fill="black" rx="2"/><rect x="26.58333396911621" y="72" width="23.416666984558105" height="18" fill="black" rx="2"/><rect x="26.899999618530273" y="100" width="23.100000381469727" height="18" fill="black" rx="2"/><rect x="26.5" y="129" width="23.5" height="18" fill="black" rx="2"/><rect x="26.566667556762695" y="158" width="23.43333339691162" height="18" fill="black" rx="2"/><rect x="26.016666412353516" y="187" width="23.983333587646484" height="18" fill="black" rx="2"/><rect x="26.633333206176758" y="216" width="23.366666793823242" height="18" fill="black" rx="2"/><rect x="26.366666793823242" y="244" width="23.633333206176758" height="18" fill="black" rx="2"/><rect x="26.100000381469727" y="302" width="23.899999618530273" height="18" fill="black" rx="2"/><rect x="52" y="37" width="88.5" height="17" fill="black" rx="2"/><rect x="52" y="95" width="86.30000305175781" height="17" fill="black" rx="2"/><rect x="38.099998474121094" y="313" width="27.799999237060547" height="18" fill="black" rx="2"/><rect x="118.03333282470703" y="313" width="27.933332443237305" height="18" fill="black" rx="2"/><rect x="221.7916717529297" y="313" width="32.41666603088379" height="18" fill="black" rx="2"/><rect x="355.0249938964844" y="313" width="31.950000762939453" height="18" fill="black" rx="2"/><rect x="485.64166259765625" y="313" width="34.71666717529297" height="18" fill="black" rx="2"/><rect x="618.875" y="313" width="34.25" height="18" fill="black" rx="2"/><rect x="637" y="25" width="36.63333320617676" height="18" fill="black" rx="2"/><rect x="637" y="175" width="37.566667556762695" height="18" fill="black" rx="2"/><rect x="637" y="247" width="34.46666717529297" height="18" fill="black" rx="2"/><rect x="295.1000061035156" y="328" width="97.80000305175781" height="19" fill="black" rx="2"/><rect x="-10.816666603088379" y="161" width="49.63333511352539" height="19" fill="black" rx="2"/><rect x="165.05833435058594" y="0" width="357.8833312988281" height="20.399999618530273" fill="black" rx="2"/><rect x="102" y="346" width="368.1833190917969" height="18" fill="black" rx="2"/><rect x="102" y="366" width="373.3166809082031" height="18" fill="black" rx="2"/><rect x="102" y="386" width="374.8166809082031" height="18" fill="black" rx="2"/></mask></defs>

<!-- Hintergrund Plotfläche -->
<rect x="52" y="24" width="584" height="288" fill="#f9f9f9" rx="2" style="fill:rgb(249, 249, 249);stroke:none;color:rgb(0, 0, 0);stroke-width:1px;stroke-linecap:butt;stroke-linejoin:miter;opacity:1;font-family:&quot;Anthropic Sans&quot;, -apple-system, BlinkMacSystemFont, &quot;Segoe UI&quot;, sans-serif;font-size:16px;font-weight:400;text-anchor:start;dominant-baseline:auto"/>

<!-- Horizontale Gitterlinien + Y-Achsenbeschriftung -->
<!-- Q=1.0 -->
<line x1="52" y1="24" x2="636" y2="24" stroke="#ddd" stroke-width="0.7" style="fill:rgb(0, 0, 0);stroke:rgb(221, 221, 221);color:rgb(0, 0, 0);stroke-width:0.7px;stroke-linecap:butt;stroke-linejoin:miter;opacity:1;font-family:&quot;Anthropic Sans&quot;, -apple-system, BlinkMacSystemFont, &quot;Segoe UI&quot;, sans-serif;font-size:16px;font-weight:400;text-anchor:start;dominant-baseline:auto"/>
<text x="46" y="27" text-anchor="end" font-size="11" fill="#888" style="fill:rgb(136, 136, 136);stroke:none;color:rgb(0, 0, 0);stroke-width:1px;stroke-linecap:butt;stroke-linejoin:miter;opacity:1;font-family:&quot;Anthropic Sans&quot;, -apple-system, BlinkMacSystemFont, &quot;Segoe UI&quot;, sans-serif;font-size:11px;font-weight:400;text-anchor:end;dominant-baseline:auto">1.0</text>
<!-- Q=0.9 -->
<line x1="52" y1="52.8" x2="636" y2="52.8" stroke="#ddd" stroke-width="0.7" mask="url(#imagine-text-gaps-a5j0b1)" style="fill:rgb(0, 0, 0);stroke:rgb(221, 221, 221);color:rgb(0, 0, 0);stroke-width:0.7px;stroke-linecap:butt;stroke-linejoin:miter;opacity:1;font-family:&quot;Anthropic Sans&quot;, -apple-system, BlinkMacSystemFont, &quot;Segoe UI&quot;, sans-serif;font-size:16px;font-weight:400;text-anchor:start;dominant-baseline:auto"/>
<text x="46" y="56" text-anchor="end" font-size="11" fill="#888" style="fill:rgb(136, 136, 136);stroke:none;color:rgb(0, 0, 0);stroke-width:1px;stroke-linecap:butt;stroke-linejoin:miter;opacity:1;font-family:&quot;Anthropic Sans&quot;, -apple-system, BlinkMacSystemFont, &quot;Segoe UI&quot;, sans-serif;font-size:11px;font-weight:400;text-anchor:end;dominant-baseline:auto">0.9</text>
<!-- Q=0.8 -->
<line x1="52" y1="81.6" x2="636" y2="81.6" stroke="#ddd" stroke-width="0.7" style="fill:rgb(0, 0, 0);stroke:rgb(221, 221, 221);color:rgb(0, 0, 0);stroke-width:0.7px;stroke-linecap:butt;stroke-linejoin:miter;opacity:1;font-family:&quot;Anthropic Sans&quot;, -apple-system, BlinkMacSystemFont, &quot;Segoe UI&quot;, sans-serif;font-size:16px;font-weight:400;text-anchor:start;dominant-baseline:auto"/>
<text x="46" y="85" text-anchor="end" font-size="11" fill="#888" style="fill:rgb(136, 136, 136);stroke:none;color:rgb(0, 0, 0);stroke-width:1px;stroke-linecap:butt;stroke-linejoin:miter;opacity:1;font-family:&quot;Anthropic Sans&quot;, -apple-system, BlinkMacSystemFont, &quot;Segoe UI&quot;, sans-serif;font-size:11px;font-weight:400;text-anchor:end;dominant-baseline:auto">0.8</text>
<!-- Q=0.7 -->
<line x1="52" y1="110.4" x2="636" y2="110.4" stroke="#ddd" stroke-width="0.7" mask="url(#imagine-text-gaps-a5j0b1)" style="fill:rgb(0, 0, 0);stroke:rgb(221, 221, 221);color:rgb(0, 0, 0);stroke-width:0.7px;stroke-linecap:butt;stroke-linejoin:miter;opacity:1;font-family:&quot;Anthropic Sans&quot;, -apple-system, BlinkMacSystemFont, &quot;Segoe UI&quot;, sans-serif;font-size:16px;font-weight:400;text-anchor:start;dominant-baseline:auto"/>
<text x="46" y="113" text-anchor="end" font-size="11" fill="#888" style="fill:rgb(136, 136, 136);stroke:none;color:rgb(0, 0, 0);stroke-width:1px;stroke-linecap:butt;stroke-linejoin:miter;opacity:1;font-family:&quot;Anthropic Sans&quot;, -apple-system, BlinkMacSystemFont, &quot;Segoe UI&quot;, sans-serif;font-size:11px;font-weight:400;text-anchor:end;dominant-baseline:auto">0.7</text>
<!-- Q=0.6 -->
<line x1="52" y1="139.2" x2="636" y2="139.2" stroke="#ddd" stroke-width="0.7" style="fill:rgb(0, 0, 0);stroke:rgb(221, 221, 221);color:rgb(0, 0, 0);stroke-width:0.7px;stroke-linecap:butt;stroke-linejoin:miter;opacity:1;font-family:&quot;Anthropic Sans&quot;, -apple-system, BlinkMacSystemFont, &quot;Segoe UI&quot;, sans-serif;font-size:16px;font-weight:400;text-anchor:start;dominant-baseline:auto"/>
<text x="46" y="142" text-anchor="end" font-size="11" fill="#888" style="fill:rgb(136, 136, 136);stroke:none;color:rgb(0, 0, 0);stroke-width:1px;stroke-linecap:butt;stroke-linejoin:miter;opacity:1;font-family:&quot;Anthropic Sans&quot;, -apple-system, BlinkMacSystemFont, &quot;Segoe UI&quot;, sans-serif;font-size:11px;font-weight:400;text-anchor:end;dominant-baseline:auto">0.6</text>
<!-- Q=0.5 -->
<line x1="52" y1="168" x2="636" y2="168" stroke="#ddd" stroke-width="0.7" style="fill:rgb(0, 0, 0);stroke:rgb(221, 221, 221);color:rgb(0, 0, 0);stroke-width:0.7px;stroke-linecap:butt;stroke-linejoin:miter;opacity:1;font-family:&quot;Anthropic Sans&quot;, -apple-system, BlinkMacSystemFont, &quot;Segoe UI&quot;, sans-serif;font-size:16px;font-weight:400;text-anchor:start;dominant-baseline:auto"/>
<text x="46" y="171" text-anchor="end" font-size="11" fill="#888" style="fill:rgb(136, 136, 136);stroke:none;color:rgb(0, 0, 0);stroke-width:1px;stroke-linecap:butt;stroke-linejoin:miter;opacity:1;font-family:&quot;Anthropic Sans&quot;, -apple-system, BlinkMacSystemFont, &quot;Segoe UI&quot;, sans-serif;font-size:11px;font-weight:400;text-anchor:end;dominant-baseline:auto">0.5</text>
<!-- Q=0.4 -->
<line x1="52" y1="196.8" x2="636" y2="196.8" stroke="#ddd" stroke-width="0.7" style="fill:rgb(0, 0, 0);stroke:rgb(221, 221, 221);color:rgb(0, 0, 0);stroke-width:0.7px;stroke-linecap:butt;stroke-linejoin:miter;opacity:1;font-family:&quot;Anthropic Sans&quot;, -apple-system, BlinkMacSystemFont, &quot;Segoe UI&quot;, sans-serif;font-size:16px;font-weight:400;text-anchor:start;dominant-baseline:auto"/>
<text x="46" y="200" text-anchor="end" font-size="11" fill="#888" style="fill:rgb(136, 136, 136);stroke:none;color:rgb(0, 0, 0);stroke-width:1px;stroke-linecap:butt;stroke-linejoin:miter;opacity:1;font-family:&quot;Anthropic Sans&quot;, -apple-system, BlinkMacSystemFont, &quot;Segoe UI&quot;, sans-serif;font-size:11px;font-weight:400;text-anchor:end;dominant-baseline:auto">0.4</text>
<!-- Q=0.3 -->
<line x1="52" y1="225.6" x2="636" y2="225.6" stroke="#ddd" stroke-width="0.7" style="fill:rgb(0, 0, 0);stroke:rgb(221, 221, 221);color:rgb(0, 0, 0);stroke-width:0.7px;stroke-linecap:butt;stroke-linejoin:miter;opacity:1;font-family:&quot;Anthropic Sans&quot;, -apple-system, BlinkMacSystemFont, &quot;Segoe UI&quot;, sans-serif;font-size:16px;font-weight:400;text-anchor:start;dominant-baseline:auto"/>
<text x="46" y="229" text-anchor="end" font-size="11" fill="#888" style="fill:rgb(136, 136, 136);stroke:none;color:rgb(0, 0, 0);stroke-width:1px;stroke-linecap:butt;stroke-linejoin:miter;opacity:1;font-family:&quot;Anthropic Sans&quot;, -apple-system, BlinkMacSystemFont, &quot;Segoe UI&quot;, sans-serif;font-size:11px;font-weight:400;text-anchor:end;dominant-baseline:auto">0.3</text>
<!-- Q=0.2 -->
<line x1="52" y1="254.4" x2="636" y2="254.4" stroke="#ddd" stroke-width="0.7" style="fill:rgb(0, 0, 0);stroke:rgb(221, 221, 221);color:rgb(0, 0, 0);stroke-width:0.7px;stroke-linecap:butt;stroke-linejoin:miter;opacity:1;font-family:&quot;Anthropic Sans&quot;, -apple-system, BlinkMacSystemFont, &quot;Segoe UI&quot;, sans-serif;font-size:16px;font-weight:400;text-anchor:start;dominant-baseline:auto"/>
<text x="46" y="257" text-anchor="end" font-size="11" fill="#888" style="fill:rgb(136, 136, 136);stroke:none;color:rgb(0, 0, 0);stroke-width:1px;stroke-linecap:butt;stroke-linejoin:miter;opacity:1;font-family:&quot;Anthropic Sans&quot;, -apple-system, BlinkMacSystemFont, &quot;Segoe UI&quot;, sans-serif;font-size:11px;font-weight:400;text-anchor:end;dominant-baseline:auto">0.2</text>
<!-- Q=0.0 -->
<line x1="52" y1="312" x2="636" y2="312" stroke="#ccc" stroke-width="0.7" style="fill:rgb(0, 0, 0);stroke:rgb(204, 204, 204);color:rgb(0, 0, 0);stroke-width:0.7px;stroke-linecap:butt;stroke-linejoin:miter;opacity:1;font-family:&quot;Anthropic Sans&quot;, -apple-system, BlinkMacSystemFont, &quot;Segoe UI&quot;, sans-serif;font-size:16px;font-weight:400;text-anchor:start;dominant-baseline:auto"/>
<text x="46" y="315" text-anchor="end" font-size="11" fill="#888" style="fill:rgb(136, 136, 136);stroke:none;color:rgb(0, 0, 0);stroke-width:1px;stroke-linecap:butt;stroke-linejoin:miter;opacity:1;font-family:&quot;Anthropic Sans&quot;, -apple-system, BlinkMacSystemFont, &quot;Segoe UI&quot;, sans-serif;font-size:11px;font-weight:400;text-anchor:end;dominant-baseline:auto">0.0</text>

<!-- Schwelllinien Q=0.90 und Q=0.70 -->
<line x1="52" y1="52.8" x2="636" y2="52.8" stroke="#3B6D11" stroke-width="1.5" stroke-dasharray="5,4" opacity="0.7" mask="url(#imagine-text-gaps-a5j0b1)" style="fill:rgb(0, 0, 0);stroke:rgb(59, 109, 17);color:rgb(0, 0, 0);stroke-width:1.5px;stroke-dasharray:5px, 4px;stroke-linecap:butt;stroke-linejoin:miter;opacity:0.7;font-family:&quot;Anthropic Sans&quot;, -apple-system, BlinkMacSystemFont, &quot;Segoe UI&quot;, sans-serif;font-size:16px;font-weight:400;text-anchor:start;dominant-baseline:auto"/>
<text x="56" y="49" font-size="10" fill="#3B6D11" font-weight="500" style="fill:rgb(59, 109, 17);stroke:none;color:rgb(0, 0, 0);stroke-width:1px;stroke-linecap:butt;stroke-linejoin:miter;opacity:1;font-family:&quot;Anthropic Sans&quot;, -apple-system, BlinkMacSystemFont, &quot;Segoe UI&quot;, sans-serif;font-size:10px;font-weight:500;text-anchor:start;dominant-baseline:auto">Q = 0.90  sehr gut</text>

<line x1="52" y1="110.4" x2="636" y2="110.4" stroke="#854F0B" stroke-width="1.5" stroke-dasharray="5,4" opacity="0.7" mask="url(#imagine-text-gaps-a5j0b1)" style="fill:rgb(0, 0, 0);stroke:rgb(133, 79, 11);color:rgb(0, 0, 0);stroke-width:1.5px;stroke-dasharray:5px, 4px;stroke-linecap:butt;stroke-linejoin:miter;opacity:0.7;font-family:&quot;Anthropic Sans&quot;, -apple-system, BlinkMacSystemFont, &quot;Segoe UI&quot;, sans-serif;font-size:16px;font-weight:400;text-anchor:start;dominant-baseline:auto"/>
<text x="56" y="107" font-size="10" fill="#854F0B" font-weight="500" style="fill:rgb(133, 79, 11);stroke:none;color:rgb(0, 0, 0);stroke-width:1px;stroke-linecap:butt;stroke-linejoin:miter;opacity:1;font-family:&quot;Anthropic Sans&quot;, -apple-system, BlinkMacSystemFont, &quot;Segoe UI&quot;, sans-serif;font-size:10px;font-weight:500;text-anchor:start;dominant-baseline:auto">Q = 0.70  spürbar</text>

<!-- Vertikale Gitterlinien + X-Achse -->
<!-- V=30 -->
<line x1="52" y1="24" x2="52" y2="312" stroke="#ccc" stroke-width="0.7" mask="url(#imagine-text-gaps-a5j0b1)" style="fill:rgb(0, 0, 0);stroke:rgb(204, 204, 204);color:rgb(0, 0, 0);stroke-width:0.7px;stroke-linecap:butt;stroke-linejoin:miter;opacity:1;font-family:&quot;Anthropic Sans&quot;, -apple-system, BlinkMacSystemFont, &quot;Segoe UI&quot;, sans-serif;font-size:16px;font-weight:400;text-anchor:start;dominant-baseline:auto"/>
<text x="52" y="326" text-anchor="middle" font-size="11" fill="#888" style="fill:rgb(136, 136, 136);stroke:none;color:rgb(0, 0, 0);stroke-width:1px;stroke-linecap:butt;stroke-linejoin:miter;opacity:1;font-family:&quot;Anthropic Sans&quot;, -apple-system, BlinkMacSystemFont, &quot;Segoe UI&quot;, sans-serif;font-size:11px;font-weight:400;text-anchor:middle;dominant-baseline:auto">30×</text>
<!-- V=60 -->
<line x1="132" y1="24" x2="132" y2="312" stroke="#eee" stroke-width="0.7" mask="url(#imagine-text-gaps-a5j0b1)" style="fill:rgb(0, 0, 0);stroke:rgb(238, 238, 238);color:rgb(0, 0, 0);stroke-width:0.7px;stroke-linecap:butt;stroke-linejoin:miter;opacity:1;font-family:&quot;Anthropic Sans&quot;, -apple-system, BlinkMacSystemFont, &quot;Segoe UI&quot;, sans-serif;font-size:16px;font-weight:400;text-anchor:start;dominant-baseline:auto"/>
<text x="132" y="326" text-anchor="middle" font-size="11" fill="#888" style="fill:rgb(136, 136, 136);stroke:none;color:rgb(0, 0, 0);stroke-width:1px;stroke-linecap:butt;stroke-linejoin:miter;opacity:1;font-family:&quot;Anthropic Sans&quot;, -apple-system, BlinkMacSystemFont, &quot;Segoe UI&quot;, sans-serif;font-size:11px;font-weight:400;text-anchor:middle;dominant-baseline:auto">60×</text>
<!-- V=100 -->
<line x1="238" y1="24" x2="238" y2="312" stroke="#eee" stroke-width="0.7" style="fill:rgb(0, 0, 0);stroke:rgb(238, 238, 238);color:rgb(0, 0, 0);stroke-width:0.7px;stroke-linecap:butt;stroke-linejoin:miter;opacity:1;font-family:&quot;Anthropic Sans&quot;, -apple-system, BlinkMacSystemFont, &quot;Segoe UI&quot;, sans-serif;font-size:16px;font-weight:400;text-anchor:start;dominant-baseline:auto"/>
<text x="238" y="326" text-anchor="middle" font-size="11" fill="#888" style="fill:rgb(136, 136, 136);stroke:none;color:rgb(0, 0, 0);stroke-width:1px;stroke-linecap:butt;stroke-linejoin:miter;opacity:1;font-family:&quot;Anthropic Sans&quot;, -apple-system, BlinkMacSystemFont, &quot;Segoe UI&quot;, sans-serif;font-size:11px;font-weight:400;text-anchor:middle;dominant-baseline:auto">100×</text>
<!-- V=150 -->
<line x1="371" y1="24" x2="371" y2="312" stroke="#eee" stroke-width="0.7" style="fill:rgb(0, 0, 0);stroke:rgb(238, 238, 238);color:rgb(0, 0, 0);stroke-width:0.7px;stroke-linecap:butt;stroke-linejoin:miter;opacity:1;font-family:&quot;Anthropic Sans&quot;, -apple-system, BlinkMacSystemFont, &quot;Segoe UI&quot;, sans-serif;font-size:16px;font-weight:400;text-anchor:start;dominant-baseline:auto"/>
<text x="371" y="326" text-anchor="middle" font-size="11" fill="#888" style="fill:rgb(136, 136, 136);stroke:none;color:rgb(0, 0, 0);stroke-width:1px;stroke-linecap:butt;stroke-linejoin:miter;opacity:1;font-family:&quot;Anthropic Sans&quot;, -apple-system, BlinkMacSystemFont, &quot;Segoe UI&quot;, sans-serif;font-size:11px;font-weight:400;text-anchor:middle;dominant-baseline:auto">150×</text>
<!-- V=200 -->
<line x1="503" y1="24" x2="503" y2="312" stroke="#eee" stroke-width="0.7" style="fill:rgb(0, 0, 0);stroke:rgb(238, 238, 238);color:rgb(0, 0, 0);stroke-width:0.7px;stroke-linecap:butt;stroke-linejoin:miter;opacity:1;font-family:&quot;Anthropic Sans&quot;, -apple-system, BlinkMacSystemFont, &quot;Segoe UI&quot;, sans-serif;font-size:16px;font-weight:400;text-anchor:start;dominant-baseline:auto"/>
<text x="503" y="326" text-anchor="middle" font-size="11" fill="#888" style="fill:rgb(136, 136, 136);stroke:none;color:rgb(0, 0, 0);stroke-width:1px;stroke-linecap:butt;stroke-linejoin:miter;opacity:1;font-family:&quot;Anthropic Sans&quot;, -apple-system, BlinkMacSystemFont, &quot;Segoe UI&quot;, sans-serif;font-size:11px;font-weight:400;text-anchor:middle;dominant-baseline:auto">200×</text>
<!-- V=250 -->
<line x1="636" y1="24" x2="636" y2="312" stroke="#ccc" stroke-width="0.7" style="fill:rgb(0, 0, 0);stroke:rgb(204, 204, 204);color:rgb(0, 0, 0);stroke-width:0.7px;stroke-linecap:butt;stroke-linejoin:miter;opacity:1;font-family:&quot;Anthropic Sans&quot;, -apple-system, BlinkMacSystemFont, &quot;Segoe UI&quot;, sans-serif;font-size:16px;font-weight:400;text-anchor:start;dominant-baseline:auto"/>
<text x="636" y="326" text-anchor="middle" font-size="11" fill="#888" style="fill:rgb(136, 136, 136);stroke:none;color:rgb(0, 0, 0);stroke-width:1px;stroke-linecap:butt;stroke-linejoin:miter;opacity:1;font-family:&quot;Anthropic Sans&quot;, -apple-system, BlinkMacSystemFont, &quot;Segoe UI&quot;, sans-serif;font-size:11px;font-weight:400;text-anchor:middle;dominant-baseline:auto">250×</text>

<!-- Achsenrahmen -->
<rect x="52" y="24" width="584" height="288" fill="none" stroke="#bbb" stroke-width="1" style="fill:none;stroke:rgb(187, 187, 187);color:rgb(0, 0, 0);stroke-width:1px;stroke-linecap:butt;stroke-linejoin:miter;opacity:1;font-family:&quot;Anthropic Sans&quot;, -apple-system, BlinkMacSystemFont, &quot;Segoe UI&quot;, sans-serif;font-size:16px;font-weight:400;text-anchor:start;dominant-baseline:auto"/>

<!-- Kurve 1: 114/900 f/7.9 grün, durchgezogen -->
<polyline clip-path="url(#plotarea)" points="52.0,25.4 56.9,25.5 61.8,25.7 66.7,25.8 71.6,26.0 76.5,26.2 81.4,26.3 86.4,26.5 91.3,26.7 96.2,26.8 101.1,27.0 106.0,27.2 110.9,27.3 115.8,27.5 120.7,27.7 125.6,27.8 130.5,28.0 135.4,28.2 140.3,28.3 145.2,28.5 150.2,28.6 155.1,28.8 160.0,28.9 164.9,29.1 169.8,29.2 174.7,29.4 179.6,29.5 184.5,29.6 189.4,29.8 194.3,29.9 199.2,30.0 204.1,30.1 209.0,30.2 213.9,30.4 218.9,30.5 223.8,30.6 228.7,30.7 233.6,30.8 238.5,30.9 243.4,31.0 248.3,31.1 253.2,31.2 258.1,31.3 263.0,31.4 267.9,31.5 272.8,31.6 277.7,31.6 282.7,31.7 287.6,31.8 292.5,31.9 297.4,32.0 302.3,32.0 307.2,32.1 312.1,32.2 317.0,32.2 321.9,32.3 326.8,32.4 331.7,32.4 336.6,32.5 341.5,32.5 346.5,32.6 351.4,32.7 356.3,32.7 361.2,32.8 366.1,32.8 371.0,32.9 375.9,32.9 380.8,33.0 385.7,33.0 390.6,33.1 395.5,33.1 400.4,33.1 405.3,33.2 410.3,33.2 415.2,33.3 420.1,33.3 425.0,33.3 429.9,33.4 434.8,33.4 439.7,33.5 444.6,33.5 449.5,33.5 454.4,33.6 459.3,33.6 464.2,33.6 469.1,33.7 474.1,33.7 479.0,33.7 483.9,33.7 488.8,33.8 493.7,33.8 498.6,33.8 503.5,33.8 508.4,33.9 513.3,33.9 518.2,33.9 523.1,33.9 528.0,34.0 532.9,34.0 537.8,34.0 542.8,34.0 547.7,34.1 552.6,34.1 557.5,34.1 562.4,34.1 567.3,34.1 572.2,34.2 577.1,34.2 582.0,34.2 586.9,34.2 591.8,34.2 596.7,34.3 601.6,34.3 606.6,34.3 611.5,34.3 616.4,34.3 621.3,34.3 626.2,34.4 631.1,34.4 636.0,34.4" fill="none" stroke="#0F6E56" stroke-width="2.5" style="fill:none;stroke:rgb(15, 110, 86);color:rgb(0, 0, 0);stroke-width:2.5px;stroke-linecap:butt;stroke-linejoin:miter;opacity:1;font-family:&quot;Anthropic Sans&quot;, -apple-system, BlinkMacSystemFont, &quot;Segoe UI&quot;, sans-serif;font-size:16px;font-weight:400;text-anchor:start;dominant-baseline:auto"/>

<!-- Kurve 2: 130/640 f/4.9 lila, gestrichelt -->
<polyline clip-path="url(#plotarea)" points="52.0,56.2 56.9,59.4 61.8,62.7 66.7,66.0 71.6,69.2 76.5,72.5 81.4,75.7 86.4,78.9 91.3,82.1 96.2,85.2 101.1,88.3 106.0,91.3 110.9,94.2 115.8,97.1 120.7,99.9 125.6,102.6 130.5,105.3 135.4,107.9 140.3,110.4 145.2,112.8 150.2,115.1 155.1,117.4 160.0,119.6 164.9,121.8 169.8,123.8 174.7,125.9 179.6,127.8 184.5,129.7 189.4,131.5 194.3,133.2 199.2,134.9 204.1,136.5 209.0,138.1 213.9,139.6 218.9,141.1 223.8,142.5 228.7,143.9 233.6,145.2 238.5,146.5 243.4,147.8 248.3,149.0 253.2,150.1 258.1,151.2 263.0,152.3 267.9,153.4 272.8,154.4 277.7,155.4 282.7,156.3 287.6,157.2 292.5,158.1 297.4,159.0 302.3,159.8 307.2,160.6 312.1,161.4 317.0,162.1 321.9,162.9 326.8,163.6 331.7,164.3 336.6,164.9 341.5,165.6 346.5,166.2 351.4,166.8 356.3,167.4 361.2,168.0 366.1,168.6 371.0,169.1 375.9,169.6 380.8,170.1 385.7,170.6 390.6,171.1 395.5,171.6 400.4,172.0 405.3,172.5 410.3,172.9 415.2,173.3 420.1,173.8 425.0,174.2 429.9,174.5 434.8,174.9 439.7,175.3 444.6,175.6 449.5,176.0 454.4,176.3 459.3,176.7 464.2,177.0 469.1,177.3 474.1,177.6 479.0,177.9 483.9,178.2 488.8,178.5 493.7,178.8 498.6,179.0 503.5,179.3 508.4,179.6 513.3,179.8 518.2,180.1 523.1,180.3 528.0,180.6 532.9,180.8 537.8,181.0 542.8,181.2 547.7,181.4 552.6,181.7 557.5,181.9 562.4,182.1 567.3,182.3 572.2,182.5 577.1,182.6 582.0,182.8 586.9,183.0 591.8,183.2 596.7,183.4 601.6,183.5 606.6,183.7 611.5,183.9 616.4,184.0 621.3,184.2 626.2,184.3 631.1,184.5 636.0,184.6" fill="none" stroke="#534AB7" stroke-width="2.5" stroke-dasharray="9,5" mask="url(#imagine-text-gaps-a5j0b1)" style="fill:none;stroke:rgb(83, 74, 183);color:rgb(0, 0, 0);stroke-width:2.5px;stroke-dasharray:9px, 5px;stroke-linecap:butt;stroke-linejoin:miter;opacity:1;font-family:&quot;Anthropic Sans&quot;, -apple-system, BlinkMacSystemFont, &quot;Segoe UI&quot;, sans-serif;font-size:16px;font-weight:400;text-anchor:start;dominant-baseline:auto"/>

<!-- Kurve 3: 200/1000 f/5.0 orange, gepunktet -->
<polyline clip-path="url(#plotarea)" points="52.0,74.9 56.9,79.8 61.8,84.8 66.7,89.8 71.6,94.8 76.5,99.7 81.4,104.6 86.4,109.4 91.3,114.1 96.2,118.7 101.1,123.2 106.0,127.7 110.9,132.0 115.8,136.1 120.7,140.2 125.6,144.2 130.5,148.0 135.4,151.7 140.3,155.3 145.2,158.7 150.2,162.1 155.1,165.3 160.0,168.5 164.9,171.5 169.8,174.4 174.7,177.2 179.6,179.9 184.5,182.5 189.4,185.0 194.3,187.5 199.2,189.8 204.1,192.0 209.0,194.2 213.9,196.3 218.9,198.3 223.8,200.3 228.7,202.2 233.6,204.0 238.5,205.7 243.4,207.4 248.3,209.0 253.2,210.6 258.1,212.1 263.0,213.6 267.9,215.0 272.8,216.4 277.7,217.7 282.7,219.0 287.6,220.2 292.5,221.4 297.4,222.6 302.3,223.7 307.2,224.8 312.1,225.8 317.0,226.8 321.9,227.8 326.8,228.8 331.7,229.7 336.6,230.6 341.5,231.4 346.5,232.3 351.4,233.1 356.3,233.9 361.2,234.6 366.1,235.4 371.0,236.1 375.9,236.8 380.8,237.5 385.7,238.1 390.6,238.8 395.5,239.4 400.4,240.0 405.3,240.6 410.3,241.2 415.2,241.7 420.1,242.3 425.0,242.8 429.9,243.3 434.8,243.8 439.7,244.3 444.6,244.8 449.5,245.2 454.4,245.7 459.3,246.1 464.2,246.6 469.1,247.0 474.1,247.4 479.0,247.8 483.9,248.2 488.8,248.6 493.7,248.9 498.6,249.3 503.5,249.6 508.4,250.0 513.3,250.3 518.2,250.6 523.1,251.0 528.0,251.3 532.9,251.6 537.8,251.9 542.8,252.2 547.7,252.5 552.6,252.7 557.5,253.0 562.4,253.3 567.3,253.5 572.2,253.8 577.1,254.0 582.0,254.3 586.9,254.5 591.8,254.8 596.7,255.0 601.6,255.2 606.6,255.4 611.5,255.6 616.4,255.9 621.3,256.1 626.2,256.3 631.1,256.5 636.0,256.7" fill="none" stroke="#D85A30" stroke-width="2.5" stroke-dasharray="3,4" mask="url(#imagine-text-gaps-a5j0b1)" style="fill:none;stroke:rgb(216, 90, 48);color:rgb(0, 0, 0);stroke-width:2.5px;stroke-dasharray:3px, 4px;stroke-linecap:butt;stroke-linejoin:miter;opacity:1;font-family:&quot;Anthropic Sans&quot;, -apple-system, BlinkMacSystemFont, &quot;Segoe UI&quot;, sans-serif;font-size:16px;font-weight:400;text-anchor:start;dominant-baseline:auto"/>

<!-- Endpunkt-Labels rechts -->
<text x="641" y="38" font-size="11" fill="#0F6E56" font-weight="500" style="fill:rgb(15, 110, 86);stroke:none;color:rgb(0, 0, 0);stroke-width:1px;stroke-linecap:butt;stroke-linejoin:miter;opacity:1;font-family:&quot;Anthropic Sans&quot;, -apple-system, BlinkMacSystemFont, &quot;Segoe UI&quot;, sans-serif;font-size:11px;font-weight:500;text-anchor:start;dominant-baseline:auto">0.964</text>
<text x="641" y="188" font-size="11" fill="#534AB7" font-weight="500" style="fill:rgb(83, 74, 183);stroke:none;color:rgb(0, 0, 0);stroke-width:1px;stroke-linecap:butt;stroke-linejoin:miter;opacity:1;font-family:&quot;Anthropic Sans&quot;, -apple-system, BlinkMacSystemFont, &quot;Segoe UI&quot;, sans-serif;font-size:11px;font-weight:500;text-anchor:start;dominant-baseline:auto">0.442</text>
<text x="641" y="260" font-size="11" fill="#D85A30" font-weight="500" style="fill:rgb(216, 90, 48);stroke:none;color:rgb(0, 0, 0);stroke-width:1px;stroke-linecap:butt;stroke-linejoin:miter;opacity:1;font-family:&quot;Anthropic Sans&quot;, -apple-system, BlinkMacSystemFont, &quot;Segoe UI&quot;, sans-serif;font-size:11px;font-weight:500;text-anchor:start;dominant-baseline:auto">0.192</text>

<!-- Achsen-Labels -->
<text x="344" y="342" text-anchor="middle" font-size="12" fill="#555" style="fill:rgb(85, 85, 85);stroke:none;color:rgb(0, 0, 0);stroke-width:1px;stroke-linecap:butt;stroke-linejoin:miter;opacity:1;font-family:&quot;Anthropic Sans&quot;, -apple-system, BlinkMacSystemFont, &quot;Segoe UI&quot;, sans-serif;font-size:12px;font-weight:400;text-anchor:middle;dominant-baseline:auto">Vergrößerung V</text>
<text x="14" y="175" text-anchor="middle" font-size="12" fill="#555" transform="rotate(-90,14,175)" style="fill:rgb(85, 85, 85);stroke:none;color:rgb(0, 0, 0);stroke-width:1px;stroke-linecap:butt;stroke-linejoin:miter;opacity:1;font-family:&quot;Anthropic Sans&quot;, -apple-system, BlinkMacSystemFont, &quot;Segoe UI&quot;, sans-serif;font-size:12px;font-weight:400;text-anchor:middle;dominant-baseline:auto">Q_perc</text>

<!-- Titel -->
<text x="344" y="15" text-anchor="middle" font-size="13" fill="#333" font-weight="500" style="fill:rgb(51, 51, 51);stroke:none;color:rgb(0, 0, 0);stroke-width:1px;stroke-linecap:butt;stroke-linejoin:miter;opacity:1;font-family:&quot;Anthropic Sans&quot;, -apple-system, BlinkMacSystemFont, &quot;Segoe UI&quot;, sans-serif;font-size:13px;font-weight:500;text-anchor:middle;dominant-baseline:auto">Wahrgenommener Qualitätsindex — Spiegel im Vergleich</text>

<!-- Legende -->
<rect x="58" y="335" width="580" height="76" fill="#f5f5f5" rx="4" stroke="#ddd" stroke-width="0.5" style="fill:rgb(245, 245, 245);stroke:rgb(221, 221, 221);color:rgb(0, 0, 0);stroke-width:0.5px;stroke-linecap:butt;stroke-linejoin:miter;opacity:1;font-family:&quot;Anthropic Sans&quot;, -apple-system, BlinkMacSystemFont, &quot;Segoe UI&quot;, sans-serif;font-size:16px;font-weight:400;text-anchor:start;dominant-baseline:auto"/>

<!-- Legende Zeile 1 -->
<line x1="70" y1="355" x2="100" y2="355" stroke="#0F6E56" stroke-width="2.5" style="fill:rgb(0, 0, 0);stroke:rgb(15, 110, 86);color:rgb(0, 0, 0);stroke-width:2.5px;stroke-linecap:butt;stroke-linejoin:miter;opacity:1;font-family:&quot;Anthropic Sans&quot;, -apple-system, BlinkMacSystemFont, &quot;Segoe UI&quot;, sans-serif;font-size:16px;font-weight:400;text-anchor:start;dominant-baseline:auto"/>
<text x="106" y="359" font-size="11" fill="#333" style="fill:rgb(51, 51, 51);stroke:none;color:rgb(0, 0, 0);stroke-width:1px;stroke-linecap:butt;stroke-linejoin:miter;opacity:1;font-family:&quot;Anthropic Sans&quot;, -apple-system, BlinkMacSystemFont, &quot;Segoe UI&quot;, sans-serif;font-size:11px;font-weight:400;text-anchor:start;dominant-baseline:auto">114/900  f/7.9  ·  S = 0.964  ·  V_krit = 78×  ·  Q(80×) = 0.980  ·  Q(160×) = 0.968</text>

<!-- Legende Zeile 2 -->
<line x1="70" y1="375" x2="100" y2="375" stroke="#534AB7" stroke-width="2.5" stroke-dasharray="9,5" style="fill:rgb(0, 0, 0);stroke:rgb(83, 74, 183);color:rgb(0, 0, 0);stroke-width:2.5px;stroke-dasharray:9px, 5px;stroke-linecap:butt;stroke-linejoin:miter;opacity:1;font-family:&quot;Anthropic Sans&quot;, -apple-system, BlinkMacSystemFont, &quot;Segoe UI&quot;, sans-serif;font-size:16px;font-weight:400;text-anchor:start;dominant-baseline:auto"/>
<text x="106" y="379" font-size="11" fill="#333" style="fill:rgb(51, 51, 51);stroke:none;color:rgb(0, 0, 0);stroke-width:1px;stroke-linecap:butt;stroke-linejoin:miter;opacity:1;font-family:&quot;Anthropic Sans&quot;, -apple-system, BlinkMacSystemFont, &quot;Segoe UI&quot;, sans-serif;font-size:11px;font-weight:400;text-anchor:start;dominant-baseline:auto">130/640  f/4.9  ·  S = 0.440  ·  V_krit = 60×  ·  Q(80×) = 0.633  ·  Q(160×) = 0.488</text>

<!-- Legende Zeile 3 -->
<line x1="70" y1="395" x2="100" y2="395" stroke="#D85A30" stroke-width="2.5" stroke-dasharray="3,4" style="fill:rgb(0, 0, 0);stroke:rgb(216, 90, 48);color:rgb(0, 0, 0);stroke-width:2.5px;stroke-dasharray:3px, 4px;stroke-linecap:butt;stroke-linejoin:miter;opacity:1;font-family:&quot;Anthropic Sans&quot;, -apple-system, BlinkMacSystemFont, &quot;Segoe UI&quot;, sans-serif;font-size:16px;font-weight:400;text-anchor:start;dominant-baseline:auto"/>
<text x="106" y="399" font-size="11" fill="#333" style="fill:rgb(51, 51, 51);stroke:none;color:rgb(0, 0, 0);stroke-width:1px;stroke-linecap:butt;stroke-linejoin:miter;opacity:1;font-family:&quot;Anthropic Sans&quot;, -apple-system, BlinkMacSystemFont, &quot;Segoe UI&quot;, sans-serif;font-size:11px;font-weight:400;text-anchor:start;dominant-baseline:auto">200/1000  f/5.0  ·  S = 0.170  ·  V_krit = 58×  ·  Q(80×) = 0.449  ·  Q(160×) = 0.251</text>

</svg>